<svg xmlns="http://www.w3.org/2000/svg" viewBox="-100 -100 200 200">
  <defs>
    <linearGradient id="s" x1="0%" y1="0%" x2="100%" y2="100%">
      <stop offset="0%" stop-color="#FBBF24"/>
      <stop offset="45%" stop-color="#F97316"/>
      <stop offset="100%" stop-color="#4F46E5"/>
    </linearGradient>
    <linearGradient id="o" x1="0%" y1="0%" x2="100%" y2="100%">
      <stop offset="0%" stop-color="#FBBF24"/>
      <stop offset="100%" stop-color="#F97316"/>
    </linearGradient>
  </defs>
  <path fill="url(#s)" d="M 0,-70 C 6,-22 22,-6 70,0 C 22,6 6,22 0,95 C -6,22 -22,6 -70,0 C -22,-6 -6,-22 0,-70 Z"/>
  <g fill="url(#o)">
    <path d="M 62,-55 C 63,-46 68,-41 77,-40 C 68,-39 63,-34 62,-25 C 61,-34 56,-39 47,-40 C 56,-41 61,-46 62,-55 Z"/>
    <path d="M 78, 42 C 79, 49 83, 53 90, 54 C 83, 55 79, 59 78, 66 C 77, 59 73, 55 66, 54 C 73, 53 77, 49 78, 42 Z"/>
    <path d="M -78,-15 C -77,-8 -73,-4 -66,-3 C -73,-2 -77, 2 -78, 9 C -79, 2 -83,-2 -90,-3 C -83,-4 -79,-8 -78,-15 Z"/>
  </g>
</svg>
